# xmcd CD database file
#
# Track frame offsets:
#	150
#	13111
#	32297
#	61421
#	77408
#	87074
#	97489
#	114973
#	131229
#	148545
#	171720
#	190672
#	209599
#	217944
#	239848
#	251080
#	260791
#	284379
#	307113
#	334855
#
# Disc length: 4776 seconds
#
# Revision: 0
# Processed by: cddbd v1.5.2PL0 Copyright (c) Steve Scherf et al.
# Submitted via: CDex 1.51
#
DISCID=3512a614
DTITLE=The Original Chico Hamilton Quintet - Complete Studio Recordings
DYEAR=1956
DGENRE=Jazz
TTITLE0=A NICE DAY
TTITLE1=MY FUNNY VALENTINE
TTITLE2=BLUE SANDS
TTITLE3=THE SAGE
TTITLE4=THE MORNING AFTER
TTITLE5=JONALAH
TTITLE6=CHRISSIE
TTITLE7=THE WIND
TTITLE8=GONE LOVER
TTITLE9=THE GHOST
TTITLE10=SLEEPY SLEPT HERE
TTITLE11=TAKIN' A CHANCE ON LOVE 
TTITLE12=THE SQUIMP
TTITLE13=TOPSY
TTITLE14=SLEEP
TTITLE15=I WANT TO BE HAPPY
TTITLE16=SPECTACULAR
TTITLE17=FREE FORM
TTITLE18=WALKIN' CARSON BLUES
TTITLE19=BUDDY BOO
EXTD=YEAR: 1956
EXTT0=
EXTT1=
EXTT2=
EXTT3=
EXTT4=
EXTT5=
EXTT6=
EXTT7=
EXTT8=
EXTT9=
EXTT10=
EXTT11=
EXTT12=
EXTT13=
EXTT14=
EXTT15=
EXTT16=
EXTT17=
EXTT18=
EXTT19=
PLAYORDER=
